<svg width="27" height="27" viewBox="0 0 27 27" fill="none" xmlns="http://www.w3.org/2000/svg">
<g clip-path="url(#clip0)">
<path d="M24.1071 2.89237H21.2143V0.963816C21.2143 0.431236 20.7826 -0.000488281 20.25 -0.000488281C19.7174 -0.000488281 19.2857 0.431236 19.2857 0.963816V2.89237H7.71426V0.963816C7.71426 0.431236 7.28254 -0.000488281 6.75001 -0.000488281C6.21749 -0.000488281 5.78571 0.431236 5.78571 0.963816V2.89237H2.89286C1.29517 2.89237 0 4.18754 0 5.78522V24.1067C0 25.7043 1.29517 26.9995 2.89286 26.9995H24.1071C25.7048 26.9995 27 25.7043 27 24.1067V5.78522C27 4.18754 25.7048 2.89237 24.1071 2.89237ZM25.0714 24.1067C25.0714 24.6392 24.6397 25.071 24.1071 25.071H2.89286C2.36028 25.071 1.92855 24.6392 1.92855 24.1067V11.5709H25.0714V24.1067ZM25.0714 9.64238H1.92855V5.78522C1.92855 5.25264 2.36028 4.82092 2.89286 4.82092H5.78571V6.74947C5.78571 7.28205 6.21743 7.71377 6.75001 7.71377C7.28259 7.71377 7.71432 7.28205 7.71432 6.74947V4.82092H19.2857V6.74947C19.2857 7.28205 19.7175 7.71377 20.25 7.71377C20.7826 7.71377 21.2143 7.28205 21.2143 6.74947V4.82092H24.1072C24.6398 4.82092 25.0715 5.25264 25.0715 5.78522V9.64238H25.0714Z" fill="#737273"/>
<path d="M7.71427 13.4995H5.78572C5.25314 13.4995 4.82141 13.9312 4.82141 14.4638C4.82141 14.9964 5.25314 15.4281 5.78572 15.4281H7.71427C8.24685 15.4281 8.67857 14.9964 8.67857 14.4638C8.67857 13.9312 8.24685 13.4995 7.71427 13.4995Z" fill="#737273"/>
<path d="M14.4643 13.4995H12.5357C12.0031 13.4995 11.5714 13.9312 11.5714 14.4638C11.5714 14.9964 12.0031 15.4281 12.5357 15.4281H14.4643C14.9968 15.4281 15.4286 14.9964 15.4286 14.4638C15.4286 13.9312 14.9968 13.4995 14.4643 13.4995Z" fill="#737273"/>
<path d="M21.2143 13.4995H19.2858C18.7532 13.4995 18.3215 13.9312 18.3215 14.4638C18.3215 14.9964 18.7532 15.4281 19.2858 15.4281H21.2143C21.7469 15.4281 22.1786 14.9964 22.1786 14.4638C22.1786 13.9312 21.7469 13.4995 21.2143 13.4995Z" fill="#737273"/>
<path d="M7.71427 17.3567H5.78572C5.25314 17.3567 4.82141 17.7884 4.82141 18.321C4.82141 18.8536 5.25314 19.2853 5.78572 19.2853H7.71427C8.24685 19.2853 8.67857 18.8536 8.67857 18.321C8.67857 17.7884 8.24685 17.3567 7.71427 17.3567Z" fill="#737273"/>
<path d="M14.4643 17.3567H12.5357C12.0031 17.3567 11.5714 17.7884 11.5714 18.321C11.5714 18.8536 12.0031 19.2853 12.5357 19.2853H14.4643C14.9968 19.2853 15.4286 18.8536 15.4286 18.321C15.4286 17.7884 14.9968 17.3567 14.4643 17.3567Z" fill="#737273"/>
<path d="M21.2143 17.3567H19.2858C18.7532 17.3567 18.3215 17.7884 18.3215 18.321C18.3215 18.8536 18.7532 19.2853 19.2858 19.2853H21.2143C21.7469 19.2853 22.1786 18.8536 22.1786 18.321C22.1786 17.7884 21.7469 17.3567 21.2143 17.3567Z" fill="#737273"/>
<path d="M7.71427 21.2139H5.78572C5.25314 21.2139 4.82141 21.6456 4.82141 22.1782C4.82141 22.7107 5.25314 23.1424 5.78572 23.1424H7.71427C8.24685 23.1424 8.67857 22.7107 8.67857 22.1781C8.67857 21.6455 8.24685 21.2139 7.71427 21.2139Z" fill="#737273"/>
<path d="M14.4643 21.2139H12.5357C12.0031 21.2139 11.5714 21.6456 11.5714 22.1782C11.5714 22.7107 12.0031 23.1425 12.5357 23.1425H14.4643C14.9968 23.1425 15.4286 22.7107 15.4286 22.1782C15.4286 21.6456 14.9968 21.2139 14.4643 21.2139Z" fill="#737273"/>
<path d="M21.2143 21.2139H19.2858C18.7532 21.2139 18.3215 21.6456 18.3215 22.1782C18.3215 22.7107 18.7532 23.1425 19.2858 23.1425H21.2143C21.7469 23.1425 22.1786 22.7107 22.1786 22.1782C22.1786 21.6456 21.7469 21.2139 21.2143 21.2139Z" fill="#737273"/>
</g>
<defs>
<clipPath id="clip0">
<rect width="27" height="27" fill="white" transform="translate(0 -0.000488281)"/>
</clipPath>
</defs>
</svg>
